<?xml version="1.0" encoding="UTF-8"?>
<svg version="1.1" xmlns="http://www.w3.org/2000/svg" width="225" height="225">
<path d="M0 0 C74.25 0 148.5 0 225 0 C225 74.25 225 148.5 225 225 C150.75 225 76.5 225 0 225 C0 150.75 0 76.5 0 0 Z " fill="#E72A06" transform="translate(0,0)"/>
<path d="M0 0 C44.22 0 88.44 0 134 0 C133.28087406 7.19125941 132.40207282 14.00608855 131.0625 21.0625 C130.89298828 22.01060547 130.72347656 22.95871094 130.54882812 23.93554688 C130.37931641 24.83466797 130.20980469 25.73378906 130.03515625 26.66015625 C129.8844165 27.47105713 129.73367676 28.28195801 129.57836914 29.11743164 C129.29207642 30.04930298 129.29207642 30.04930298 129 31 C126.24615886 32.37692057 124.13566963 32.02589902 121.05859375 31.921875 C96.43242496 31.32286891 78.39848025 34.77509525 59 51 C58.01 51.721875 57.02 52.44375 56 53.1875 C46.62891473 61.21246253 40.81692633 72.86918612 36 84 C35.54238281 85.03898437 35.08476563 86.07796875 34.61328125 87.1484375 C28.92286524 103.00173684 29.64032022 124.48590226 36 140 C36.30035156 140.87785156 36.60070313 141.75570312 36.91015625 142.66015625 C40.85706464 153.71491696 47.84340419 162.70492208 56 171 C56.68707031 171.69996094 57.37414063 172.39992187 58.08203125 173.12109375 C75.11153331 189.3291356 96.10033404 193.6771082 118.83984375 193.3125 C139.64299326 192.5540683 159.16905709 181.99020348 173.2734375 167.03515625 C185.02647094 154.1472079 193.17816407 136.01793216 193.09765625 118.38671875 C193.09443359 117.13955078 193.09121094 115.89238281 193.08789062 114.60742188 C193.07951172 113.31384766 193.07113281 112.02027344 193.0625 110.6875 C193.05573242 108.71813477 193.05573242 108.71813477 193.04882812 106.70898438 C193.03705949 103.4726099 193.0206176 100.23632822 193 97 C208.26017077 93.46942491 208.26017077 93.46942491 213.5 92.3125 C214.6240625 92.06113281 215.748125 91.80976562 216.90625 91.55078125 C220 91 220 91 225 91 C225 135.22 225 179.44 225 225 C150.75 225 76.5 225 0 225 C0 150.75 0 76.5 0 0 Z " fill="#7F0F03" transform="translate(0,0)"/>
<path d="M0 0 C30.03 0 60.06 0 91 0 C91 30.03 91 60.06 91 91 C79.12 93.31 67.24 95.62 55 98 C45.98636189 99.94694181 45.98636189 99.94694181 37 102 C37.6496875 102.72316406 38.299375 103.44632812 38.96875 104.19140625 C42.01459572 108.4028737 41.79582285 111.98390448 41 117 C38.83592096 121.40830916 36.57493538 124.12843553 32 126 C27.17276908 126.53635899 25.02109214 126.52017901 20.6875 124.3125 C17.83835717 121.86091198 16.3683503 120.49689521 15 117 C14.85136183 114.34928602 14.87449546 111.76136901 14.9921875 109.109375 C14.99476563 108.41328125 14.99734375 107.7171875 15 107 C14.67 106.67 14.34 106.34 14 106 C10.22454612 107.09068668 7.52956528 107.9083091 5 111 C6.34238233 115.04127733 8.03303511 117.34643441 11.125 120.25 C12.43036723 121.48568571 13.72603666 122.73196207 15 124 C15 124.33 15 124.66 15 125 C11.86190498 125.52301584 9.12634658 125.65232888 6 125 C3.55044987 123.14729457 1.64623607 121.15841586 -0.37109375 118.84765625 C-1.87926794 116.90404176 -1.87926794 116.90404176 -4 116 C-4 118.97 -4 121.94 -4 125 C-6.31 125 -8.62 125 -11 125 C-11 120.38 -11 115.76 -11 111 C-12.32 111 -13.64 111 -15 111 C-15.103125 111.763125 -15.20625 112.52625 -15.3125 113.3125 C-16.07203801 116.28160312 -16.36995016 117.4219701 -19 119 C-22.5625 118.875 -22.5625 118.875 -26 118 C-28.31361802 114.52957297 -28.51020728 113.08165827 -28 109 C-26.25 107.125 -26.25 107.125 -24 106 C-22.68 106 -21.36 106 -20 106 C-19.90178955 104.68805664 -19.8035791 103.37611328 -19.70239258 102.02441406 C-18.94006774 94.45306517 -17.30376232 87.05085977 -15.76171875 79.609375 C-15.43592256 78.01737606 -15.11064104 76.42527171 -14.7858429 74.83306885 C-13.931812 70.65187458 -13.07225695 66.47183764 -12.21105957 62.29211426 C-10.84288409 55.64901462 -9.48170974 49.00448534 -8.12330055 42.35938263 C-7.65602368 40.07860245 -7.18549825 37.79851258 -6.71452332 35.51849365 C-4.29206857 23.7025996 -2.15943527 11.87689399 0 0 Z " fill="#EEC91A" transform="translate(134,0)"/>
<path d="M0 0 C2.41366016 0.79517694 4.82653522 1.59260983 7.23901367 2.39135742 C7.91945488 2.61526909 8.59989609 2.83918076 9.30095673 3.06987762 C20.50223859 6.7847891 30.23889069 12.02640613 39 20 C39.91652344 20.82371094 40.83304688 21.64742187 41.77734375 22.49609375 C54.70860156 34.71781752 61.18184396 48.81829783 65 66 C57.74 67.65 50.48 69.3 43 71 C44.32 72.65 45.64 74.3 47 76 C48.05398732 80.89019116 47.50337547 84.97460553 45.3125 89.4375 C41.68321659 93.45913837 39.5099642 94.8322262 34.0625 95.4375 C29.7849487 95.25994127 27.26583542 93.81013746 24 91 C20.45263202 86.97964962 20.76573383 83.212131 20.9921875 78.109375 C20.99476563 77.41328125 20.99734375 76.7171875 21 76 C20.67 75.67 20.34 75.34 20 75 C16.22454612 76.09068668 13.52956528 76.9083091 11 80 C12.34238233 84.04127733 14.03303511 86.34643441 17.125 89.25 C18.43036723 90.48568571 19.72603666 91.73196207 21 93 C21 93.33 21 93.66 21 94 C17.86190498 94.52301584 15.12634658 94.65232888 12 94 C9.55044987 92.14729457 7.64623607 90.15841586 5.62890625 87.84765625 C4.12073206 85.90404176 4.12073206 85.90404176 2 85 C2 87.97 2 90.94 2 94 C-0.31 94 -2.62 94 -5 94 C-5 89.38 -5 84.76 -5 80 C-6.32 80 -7.64 80 -9 80 C-9.103125 80.763125 -9.20625 81.52625 -9.3125 82.3125 C-10.07203801 85.28160312 -10.36995016 86.4219701 -13 88 C-16.5625 87.875 -16.5625 87.875 -20 87 C-22.31361802 83.52957297 -22.51020728 82.08165827 -22 78 C-20.25 76.125 -20.25 76.125 -18 75 C-16.68 75 -15.36 75 -14 75 C-13.96193741 74.45441437 -13.92387482 73.90882874 -13.88465881 73.34671021 C-13.21725352 65.38054522 -11.65265242 57.62467434 -10.05859375 49.8046875 C-9.76813685 48.36174889 -9.47811025 46.9187236 -9.18849182 45.47561646 C-8.43161197 41.71014635 -7.66896058 37.94586867 -6.9050293 34.18182373 C-6.12389685 30.32765914 -5.34832787 26.47237559 -4.57226562 22.6171875 C-3.05356633 15.07702992 -1.52875735 7.5381255 0 0 Z " fill="#75B4E6" transform="translate(128,31)"/>
<path d="M0 0 C1.98 0 3.96 0 6 0 C6 8.25 6 16.5 6 25 C3.36 25 0.72 25 -2 25 C-2.66 25.33 -3.32 25.66 -4 26 C-8.17433895 26.40137875 -10.49551713 26.26194303 -14.25 24.3125 C-17.78879138 21.33669816 -19.60588831 19.3407846 -20.38671875 14.703125 C-20.72146423 9.79352461 -20.35013685 6.76192878 -17.125 2.9375 C-12.2001482 -2.11820535 -6.49017899 -1.7307144 0 0 Z " fill="#FCF9F7" transform="translate(70,100)"/>
<path d="M0 0 C3.20546734 3.30260271 4.36776034 5.39744839 4.4375 9.9375 C4.33217511 14.75435824 3.36150559 17.46934515 0.0625 21.125 C-3.3996961 24.01016342 -6.42546884 24.66417865 -10.9453125 24.4765625 C-15.27706346 23.71213586 -17.98927247 21.19965786 -20.8125 18 C-22.50539091 13.67372323 -22.72096718 9.70132696 -21.9375 5.125 C-20.25977517 1.74883769 -17.86336243 -0.28347678 -14.6875 -2.3125 C-9.33250248 -3.4078404 -4.63016465 -2.95542424 0 0 Z " fill="#FBF8F6" transform="translate(170.9375,101.875)"/>
<path d="M0 0 C7.26 0 14.52 0 22 0 C22 5.625 22 5.625 19.8125 8.55078125 C19.36132812 9.16630859 18.91015625 9.78183594 18.4453125 10.41601562 C17.96835938 11.04185547 17.49140625 11.66769531 17 12.3125 C16.52304688 12.95767578 16.04609375 13.60285156 15.5546875 14.26757812 C14.38035284 15.85292992 13.19156604 17.42755839 12 19 C15.63 19.33 19.26 19.66 23 20 C23 21.98 23 23.96 23 26 C15.41 26 7.82 26 0 26 C0 20.30510031 1.57799276 18.3355277 5 14.1875 C5.47695312 13.59001953 5.95390625 12.99253906 6.4453125 12.37695312 C7.61944235 10.90929082 8.80830803 9.45343861 10 8 C6.7 7.67 3.4 7.34 0 7 C0 4.69 0 2.38 0 0 Z " fill="#F9EFEC" transform="translate(81,99)"/>
<path d="M0 0 C2.3125 0.24609375 2.3125 0.24609375 4 0.5625 C-2.15034169 9.00896925 -2.15034169 9.00896925 -6 12.5625 C-4.65761767 16.60377733 -2.96696489 18.90893441 0.125 21.8125 C1.43036723 23.04818571 2.72603666 24.29446207 4 25.5625 C4 25.8925 4 26.2225 4 26.5625 C0.86190498 27.08551584 -1.87365342 27.21482888 -5 26.5625 C-7.44955013 24.70979457 -9.35376393 22.72091586 -11.37109375 20.41015625 C-12.87926794 18.46654176 -12.87926794 18.46654176 -15 17.5625 C-15 20.5325 -15 23.5025 -15 26.5625 C-16.98 26.5625 -18.96 26.5625 -21 26.5625 C-21 18.3125 -21 10.0625 -21 1.5625 C-18.69 1.5625 -16.38 1.5625 -14 1.5625 C-13.67 4.2025 -13.34 6.8425 -13 9.5625 C-12.29037109 8.58796875 -12.29037109 8.58796875 -11.56640625 7.59375 C-5.4926665 -0.07834231 -5.4926665 -0.07834231 0 0 Z " fill="#FAFBFA" transform="translate(145,98.4375)"/>
<path d="M0 0 C2.16551116 3.24826674 2.55156953 4.23094157 2 8 C0.4375 10.375 0.4375 10.375 -2 12 C-5.625 11.9375 -5.625 11.9375 -9 11 C-11.31361802 7.52957297 -11.51020728 6.08165827 -11 2 C-7.82775887 -1.933579 -4.58022934 -1.18746687 0 0 Z " fill="#F9F6F4" transform="translate(117,107)"/>
<path d="M0 0 C2 2 2 2 2.375 5.4375 C2 9 2 9 0.3125 10.9375 C-2.41818887 12.19214083 -4.02932151 12.45702746 -7 12 C-8.8125 10.9375 -8.8125 10.9375 -10 9 C-10.36841966 5.56141649 -10.58367385 3.09868019 -8.9375 0 C-5.80557344 -1.61647822 -3.32814714 -0.78665296 0 0 Z " fill="#E52C0B" transform="translate(67,107)"/>
<path d="M0 0 C2 2 2 2 2.375 5.4375 C2 9 2 9 0.375 11 C-2.81179601 12.34180884 -4.71109893 11.92947204 -8 11 C-10 9 -10 9 -10.3125 5.5625 C-10 2 -10 2 -8.9375 0 C-5.80557344 -1.61647822 -3.32814714 -0.78665296 0 0 Z " fill="#E52A0B" transform="translate(166,107)"/>
<path d="M0 0 C1.03125 0.37125 2.0625 0.7425 3.125 1.125 C7.33375955 2.07536506 9.12163756 1.70269571 13 0 C13.66 1.32 14.32 2.64 15 4 C14.34 4 13.68 4 13 4 C13 3.34 13 2.68 13 2 C12.34 2 11.68 2 11 2 C11.66 3.32 12.32 4.64 13 6 C13.66 5.67 14.32 5.34 15 5 C14.67 5.99 14.34 6.98 14 8 C13.38125 7.835 12.7625 7.67 12.125 7.5 C9.12517354 6.79415848 8.0093769 6.99687437 5 8 C5 7.01 5 6.02 5 5 C4.34 5 3.68 5 3 5 C2.67 5.99 2.34 6.98 2 8 C0.68 7.67 -0.64 7.34 -2 7 C-2.125 4.625 -2.125 4.625 -2 2 C-1.34 1.34 -0.68 0.68 0 0 Z " fill="#EAAD9E" transform="translate(84,158)"/>
<path d="M0 0 C1.11375 0.2475 1.11375 0.2475 2.25 0.5 C4.96126327 1.16737191 4.96126327 1.16737191 7.5 0.5 C10.31556665 -0.06311333 12.24286986 0.29102368 15 1 C15 2.98 15 4.96 15 7 C14.34 7 13.68 7 13 7 C13 5.35 13 3.7 13 2 C12.34 2 11.68 2 11 2 C11 3.65 11 5.3 11 7 C10.34 7 9.68 7 9 7 C9 5.35 9 3.7 9 2 C8.34 2 7.68 2 7 2 C7 3.98 7 5.96 7 8 C6.34 8 5.68 8 5 8 C5 7.34 5 6.68 5 6 C4.34 6 3.68 6 3 6 C3 4.68 3 3.36 3 2 C2.01 2 1.02 2 0 2 C-0.33 3.32 -0.66 4.64 -1 6 C-1.042721 4.33388095 -1.04063832 2.66617115 -1 1 C-0.67 0.67 -0.34 0.34 0 0 Z " fill="#EAB7AB" transform="translate(108,143)"/>
<path d="M0 0 C0.66 0.66 1.32 1.32 2 2 C3.32 1.34 4.64 0.68 6 0 C6.33 0.66 6.66 1.32 7 2 C6.01 2 5.02 2 4 2 C4.66 3.32 5.32 4.64 6 6 C6.66 5.67 7.32 5.34 8 5 C7.67 5.99 7.34 6.98 7 8 C6.401875 7.814375 5.80375 7.62875 5.1875 7.4375 C2.83591238 6.77906313 2.83591238 6.77906313 0 8 C0 6.02 0 4.04 0 2 C-0.66 2 -1.32 2 -2 2 C-2 3.98 -2 5.96 -2 8 C-2.66 8 -3.32 8 -4 8 C-4 6.02 -4 4.04 -4 2 C-4.66 2 -5.32 2 -6 2 C-6 3.98 -6 5.96 -6 8 C-6.66 8 -7.32 8 -8 8 C-8 5.69 -8 3.38 -8 1 C-5.03104944 0.01034981 -3.0913386 -0.23779528 0 0 Z " fill="#EBBBAE" transform="translate(108,158)"/>
<path d="M0 0 C2.29013653 3.4352048 2.17842973 4.985331 2 9 C0 9 -2 9 -4 9 C-4 7.02 -4 5.04 -4 3 C-4.66 3 -5.32 3 -6 3 C-6 4.98 -6 6.96 -6 9 C-6.66 9 -7.32 9 -8 9 C-8 6.69 -8 4.38 -8 2 C-6.865625 1.855625 -5.73125 1.71125 -4.5625 1.5625 C-1.19222799 1.38828522 -1.19222799 1.38828522 0 0 Z " fill="#E9B9AF" transform="translate(125,157)"/>
<path d="M0 0 C2.475 0.495 2.475 0.495 5 1 C5 2.32 5 3.64 5 5 C4.01 5.33 3.02 5.66 2 6 C2 7.32 2 8.64 2 10 C1.34 10 0.68 10 0 10 C0 6.7 0 3.4 0 0 Z " fill="#E9A69B" transform="translate(130,156)"/>
<path d="M0 0 C0.99 0.33 1.98 0.66 3 1 C3 2.98 3 4.96 3 7 C2.360625 7.12375 1.72125 7.2475 1.0625 7.375 C0.0415625 7.684375 0.0415625 7.684375 -1 8 C-1.33 8.66 -1.66 9.32 -2 10 C-2 7.03 -2 4.06 -2 1 C-1.34 0.67 -0.68 0.34 0 0 Z " fill="#EBA293" transform="translate(73,158)"/>
<path d="M0 0 C0.66 0 1.32 0 2 0 C3.15941038 3.47823115 2.70820884 5.45895578 2 9 C1.34 9 0.68 9 0 9 C0 7.02 0 5.04 0 3 C-0.99 3 -1.98 3 -3 3 C-3 4.98 -3 6.96 -3 9 C-3.66 9 -4.32 9 -5 9 C-5 6.69 -5 4.38 -5 2 C-3.35 2 -1.7 2 0 2 C0 1.34 0 0.68 0 0 Z " fill="#ECC2B6" transform="translate(148,157)"/>
<path d="M0 0 C1.32 0.66 2.64 1.32 4 2 C3.67 3.65 3.34 5.3 3 7 C1.68 7 0.36 7 -1 7 C-1.625 4.625 -1.625 4.625 -2 2 C-1.34 1.34 -0.68 0.68 0 0 Z " fill="#E9988C" transform="translate(81,143)"/>
<path d="M0 0 C1.65 0.33 3.3 0.66 5 1 C5 2.98 5 4.96 5 7 C3.35 7 1.7 7 0 7 C0 4.66666667 0 2.33333333 0 0 Z " fill="#E9B2A6" transform="translate(137,159)"/>
<path d="M0 0 C0.33 1.32 0.66 2.64 1 4 C1.99 4 2.98 4 4 4 C4 2.68 4 1.36 4 0 C4.66 0 5.32 0 6 0 C6 2.97 6 5.94 6 9 C5.34 9 4.68 9 4 9 C4 7.68 4 6.36 4 5 C3.01 5 2.02 5 1 5 C0.67 6.32 0.34 7.64 0 9 C0 6.03 0 3.06 0 0 Z " fill="#F0D6CE" transform="translate(100,141)"/>
<path d="M0 0 C2.0625 0.4375 2.0625 0.4375 4 1 C4 1.99 4 2.98 4 4 C2.68 4 1.36 4 0 4 C0 4.66 0 5.32 0 6 C1.32 5.67 2.64 5.34 4 5 C3.67 5.99 3.34 6.98 3 8 C1.68 7.67 0.36 7.34 -1 7 C-1.04254356 5.00045254 -1.04080783 2.99958364 -1 1 C-0.67 0.67 -0.34 0.34 0 0 Z " fill="#E9B5AA" transform="translate(147,143)"/>
<path d="M0 0 C0.66 0 1.32 0 2 0 C2 2.64 2 5.28 2 8 C2.99 8 3.98 8 5 8 C5 8.66 5 9.32 5 10 C3.35 10 1.7 10 0 10 C0 6.7 0 3.4 0 0 Z " fill="#EAB7AA" transform="translate(133,141)"/>
<path d="M0 0 C0.66 0.33 1.32 0.66 2 1 C1.67 3.97 1.34 6.94 1 10 C0.34 10 -0.32 10 -1 10 C-1.02689216 8.52093108 -1.04634621 7.04172517 -1.0625 5.5625 C-1.07410156 4.73878906 -1.08570313 3.91507813 -1.09765625 3.06640625 C-1 1 -1 1 0 0 Z " fill="#E8B4A7" transform="translate(143,141)"/>
<path d="M0 0 C0.33 0.66 0.66 1.32 1 2 C1.66 2 2.32 2 3 2 C3.33 1.34 3.66 0.68 4 0 C4 0.99 4 1.98 4 3 C3.01 3 2.02 3 1 3 C1 3.66 1 4.32 1 5 C1.99 4.67 2.98 4.34 4 4 C3.67 4.99 3.34 5.98 3 7 C1.68 6.34 0.36 5.68 -1 5 C-0.67 3.35 -0.34 1.7 0 0 Z " fill="#EED0C5" transform="translate(125,144)"/>
<path d="M0 0 C-1.52708963 3.43595166 -3.59927045 6.11912454 -6 9 C-6.8125 7.3125 -6.8125 7.3125 -7 5 C-2.79545455 0 -2.79545455 0 0 0 Z " fill="#E12B11" transform="translate(145,106)"/>
<path d="M0 0 C2.29013653 3.4352048 2.17842973 4.985331 2 9 C1.01 8.67 0.02 8.34 -1 8 C-1.04241723 5.66705225 -1.04092937 3.33297433 -1 1 C-0.67 0.67 -0.34 0.34 0 0 Z " fill="#ECC8BB" transform="translate(125,157)"/>
<path d="M0 0 C0.99 0 1.98 0 3 0 C3.33 1.65 3.66 3.3 4 5 C2.68 5 1.36 5 0 5 C0 3.35 0 1.7 0 0 Z " fill="#E4604F" transform="translate(108,145)"/>
</svg>
